<svg width="13" height="13" viewBox="0 0 13 13" fill="none" xmlns="http://www.w3.org/2000/svg">
<path d="M6.94857 11.2054C6.68321 11.2062 6.42859 11.1007 6.24157 10.9124L2.32307 6.99494C2.1163 6.78886 2.0103 6.50248 2.03307 6.21144L2.28307 2.92844C2.31878 2.43428 2.71278 2.04178 3.20707 2.00794L6.49007 1.75794C6.51607 1.75244 6.54157 1.75244 6.56757 1.75244C6.8324 1.75212 7.08638 1.85761 7.27307 2.04544L11.1916 5.96244C11.3792 6.14999 11.4846 6.40441 11.4846 6.66969C11.4846 6.93498 11.3792 7.1894 11.1916 7.37694L7.65557 10.9124C7.46848 11.1006 7.2139 11.2061 6.94857 11.2054ZM4.82707 3.54844C4.37448 3.54857 3.9784 3.85266 3.86137 4.28986C3.74433 4.72705 3.93553 5.18835 4.32752 5.41457C4.71952 5.64078 5.21459 5.57552 5.53457 5.25544L5.53807 5.25244L5.54157 5.24894L5.53757 5.25244C5.82179 4.96572 5.90572 4.53622 5.75035 4.1636C5.59498 3.79097 5.23079 3.54832 4.82707 3.54844Z" fill="#FF652C"/>
</svg>
